<svg width="36" height="30" viewBox="0 0 36 30" fill="none" xmlns="http://www.w3.org/2000/svg">
<path d="M15.7023 2.29102L17.441 0.795117C18.1772 0.161719 19.3676 0.161719 20.096 0.795117L35.3215 13.8876C36.0577 14.521 36.0577 15.5452 35.3215 16.1719L20.096 29.2711C19.3598 29.9045 18.1693 29.9045 17.441 29.2711L15.7023 27.7752C14.9582 27.1351 14.9739 26.0906 15.7336 25.464L25.1712 17.7284H2.66191C1.62025 17.7284 0.782227 17.0074 0.782227 16.1112V13.955C0.782227 13.0588 1.62025 12.3378 2.66191 12.3378H25.1712L15.7336 4.60225C14.966 3.97559 14.9504 2.93115 15.7023 2.29102Z" fill="#9333EA"/>
</svg>
