<svg width="15" height="16" viewBox="0 0 15 16" fill="none" xmlns="http://www.w3.org/2000/svg">
<g clip-path="url(#clip0_528_162)">
<path d="M7.5 0.734375C3.48633 0.734375 0.234375 3.98633 0.234375 8C0.234375 12.0137 3.48633 15.2656 7.5 15.2656C11.5137 15.2656 14.7656 12.0137 14.7656 8C14.7656 3.98633 11.5137 0.734375 7.5 0.734375ZM9.17285 10.9912L6.58887 9.11328C6.49805 9.0459 6.44531 8.94043 6.44531 8.8291V3.89844C6.44531 3.70508 6.60352 3.54688 6.79688 3.54688H8.20312C8.39648 3.54688 8.55469 3.70508 8.55469 3.89844V7.93262L10.415 9.28613C10.5732 9.40039 10.6055 9.62012 10.4912 9.77832L9.66504 10.915C9.55078 11.0703 9.33105 11.1055 9.17285 10.9912Z" fill="#BE185D"/>
</g>
<defs>
<clipPath id="clip0_528_162">
<rect width="15" height="15" fill="white" transform="translate(0 0.5)"/>
</clipPath>
</defs>
</svg>
