<svg width="31" height="37" viewBox="0 0 31 37" fill="none" xmlns="http://www.w3.org/2000/svg">
<path d="M31 25.7292V2.47923C31 1.55891 30.2596 0.818512 29.3393 0.818512H6.64286C2.97545 0.818512 0 3.79396 0 7.46137V29.6042C0 33.2716 2.97545 36.2471 6.64286 36.2471H29.3393C30.2596 36.2471 31 35.5067 31 34.5864V33.4792C31 32.9603 30.7578 32.4897 30.3842 32.1853C30.0935 31.1196 30.0935 28.0819 30.3842 27.0163C30.7578 26.7187 31 26.2482 31 25.7292ZM8.85714 10.0908C8.85714 9.86248 9.04397 9.67565 9.27232 9.67565H23.942C24.1703 9.67565 24.3571 9.86248 24.3571 10.0908V11.4748C24.3571 11.7031 24.1703 11.8899 23.942 11.8899H9.27232C9.04397 11.8899 8.85714 11.7031 8.85714 11.4748V10.0908ZM8.85714 14.5194C8.85714 14.2911 9.04397 14.1042 9.27232 14.1042H23.942C24.1703 14.1042 24.3571 14.2911 24.3571 14.5194V15.9033C24.3571 16.1317 24.1703 16.3185 23.942 16.3185H9.27232C9.04397 16.3185 8.85714 16.1317 8.85714 15.9033V14.5194ZM26.3915 31.8185H6.64286C5.41808 31.8185 4.42857 30.829 4.42857 29.6042C4.42857 28.3864 5.425 27.3899 6.64286 27.3899H26.3915C26.26 28.5732 26.26 30.6353 26.3915 31.8185Z" fill="#BE185D"/>
</svg>
