<svg width="50" height="36" viewBox="0 0 50 36" fill="none" xmlns="http://www.w3.org/2000/svg">
<path d="M15 17.5328C19.8359 17.5328 23.75 13.6187 23.75 8.78279C23.75 3.94685 19.8359 0.0327911 15 0.0327911C10.1641 0.0327911 6.25 3.94685 6.25 8.78279C6.25 13.6187 10.1641 17.5328 15 17.5328ZM21 20.0328H20.3516C18.7266 20.814 16.9219 21.2828 15 21.2828C13.0781 21.2828 11.2812 20.814 9.64844 20.0328H9C4.03125 20.0328 0 24.064 0 29.0328V31.2828C0 33.3531 1.67969 35.0328 3.75 35.0328H26.25C28.3203 35.0328 30 33.3531 30 31.2828V29.0328C30 24.064 25.9687 20.0328 21 20.0328ZM37.5 17.5328C41.6406 17.5328 45 14.1734 45 10.0328C45 5.89217 41.6406 2.53279 37.5 2.53279C33.3594 2.53279 30 5.89217 30 10.0328C30 14.1734 33.3594 17.5328 37.5 17.5328ZM41.25 20.0328H40.9531C39.8672 20.4078 38.7188 20.6578 37.5 20.6578C36.2812 20.6578 35.1328 20.4078 34.0469 20.0328H33.75C32.1562 20.0328 30.6875 20.4937 29.3984 21.2359C31.3047 23.2906 32.5 26.0172 32.5 29.0328V32.0328C32.5 32.2047 32.4609 32.3687 32.4531 32.5328H46.25C48.3203 32.5328 50 30.8531 50 28.7828C50 23.9469 46.0859 20.0328 41.25 20.0328Z" fill="#BE185D"/>
</svg>
